<svg id="Layer_1" enable-background="new 0 0 512 512" height="512" viewBox="0 0 512 512" width="512" xmlns="http://www.w3.org/2000/svg" xmlns:xlink="http://www.w3.org/1999/xlink"><linearGradient id="SVGID_1_" gradientUnits="userSpaceOnUse" x1="111.437" x2="506.736" y1="445.055" y2="49.756"><stop offset="0" stop-color="#fcc60e"/><stop offset="1" stop-color="#e92e29"/></linearGradient><path d="m427.05 388.854c17.648-11.607 29.33-31.577 29.33-54.233 0-35.774-29.105-64.879-64.879-64.879-35.775 0-64.88 29.105-64.88 64.879 0 22.656 11.682 42.626 29.33 54.233-49.146 15.204-84.951 61.071-84.951 115.146 0 4.418 3.582 8 8 8h225c4.418 0 8-3.582 8-8 0-54.075-35.804-99.941-84.95-115.146zm-84.429-54.233c0-26.952 21.927-48.879 48.88-48.879 26.952 0 48.879 21.927 48.879 48.879s-21.927 48.879-48.879 48.879c-26.953 0-48.88-21.927-48.88-48.879zm-55.318 161.379c4.098-53.899 49.266-96.5 104.197-96.5s100.098 42.6 104.196 96.5zm-46.303-261.742c0-54.074-35.804-99.941-84.95-115.146 17.648-11.607 29.331-31.577 29.331-54.233 0-35.774-29.105-64.879-64.88-64.879s-64.88 29.105-64.88 64.879c0 22.656 11.682 42.626 29.33 54.233-49.146 15.204-84.951 61.071-84.951 115.146 0 4.418 3.582 8 8 8h225c4.418 0 8-3.581 8-8zm-169.379-169.379c0-26.952 21.927-48.879 48.88-48.879s48.88 21.927 48.88 48.879-21.927 48.879-48.88 48.879-48.88-21.926-48.88-48.879zm-55.317 161.379c4.098-53.899 49.266-96.5 104.196-96.5 54.931 0 100.099 42.6 104.197 96.5zm257.196 189.634v-112.879c0-14.336-11.664-26-26-26h-189c-14.336 0-26 11.664-26 26v52.354c0 14.336 11.664 26 26 26h170.211l30.459 39.417c1.544 1.999 3.9 3.109 6.332 3.109.862 0 1.735-.14 2.583-.43 3.239-1.106 5.415-4.149 5.415-7.571zm-16-23.436-18.531-23.981c-1.515-1.96-3.853-3.108-6.33-3.108h-174.139c-5.514 0-10-4.486-10-10v-52.354c0-5.514 4.486-10 10-10h189c5.514 0 10 4.486 10 10zm-26.338-63.267c0 4.418-3.582 8-8 8h-45.732c-4.418 0-8-3.582-8-8s3.582-8 8-8h45.731c4.419 0 8.001 3.582 8.001 8zm-76.925 0c0 4.418-3.582 8-8 8h-63.397c-4.418 0-8-3.582-8-8s3.582-8 8-8h63.396c4.419 0 8.001 3.582 8.001 8zm89.678-175.468c.849.29 1.72.43 2.583.43 2.431 0 4.787-1.11 6.332-3.109l30.459-39.417h170.21c14.336 0 26-11.664 26-26v-52.354c0-14.336-11.664-26-26-26h-189c-14.336 0-26 11.664-26 26v112.879c0 3.423 2.177 6.466 5.416 7.571zm10.584-120.45c0-5.514 4.486-10 10-10h189c5.514 0 10 4.486 10 10v52.354c0 5.514-4.486 10-10 10h-174.139c-2.478 0-4.815 1.148-6.33 3.108l-18.531 23.981zm26.339 26.177c0-4.418 3.582-8 8-8h45.731c4.418 0 8 3.582 8 8s-3.582 8-8 8h-45.731c-4.418 0-8-3.582-8-8zm76.925 0c0-4.418 3.582-8 8-8h63.396c4.418 0 8 3.582 8 8s-3.582 8-8 8h-63.396c-4.418 0-8-3.582-8-8z" fill="url(#SVGID_1_)"/></svg>