<svg id="Layer_1" enable-background="new 0 0 512 512" height="512" viewBox="0 0 512 512" width="512" xmlns="http://www.w3.org/2000/svg" xmlns:xlink="http://www.w3.org/1999/xlink"><linearGradient id="SVGID_1_" gradientUnits="userSpaceOnUse" x1="61.914" x2="438.702" y1="498.826" y2="122.038"><stop offset="0" stop-color="#fcc60e"/><stop offset="1" stop-color="#e92e29"/></linearGradient><path d="m511.162 442.441-36.795-73.95c24.382-42.54 32.445-92.231 22.691-140.432-19.162-94.705-102.609-162.474-198.853-161.959-21.937-11.861-46.124-19.63-71.621-22.752-53.558-6.56-106.467 8.133-148.976 41.367-42.51 33.234-69.532 81.034-76.09 134.593-5.978 48.813 5.923 97.728 33.538 138.245l-30.937 76.586c-1.219 3.018-.488 6.475 1.85 8.74 2.337 2.266 5.815 2.89 8.794 1.577l74.606-32.878c26.21 17.621 56.574 28.936 88.109 32.797 8.3 1.017 16.54 1.512 24.699 1.512.322 0 .642-.01.963-.011 29.612 15.994 62.632 24.253 95.953 24.253 13.363 0 26.775-1.326 40.028-4.007 31.14-6.301 60.532-19.942 85.294-39.546l76.936 26.979c3.072 1.077 6.491.186 8.645-2.255 2.156-2.441 2.616-5.944 1.166-8.859zm-416.317-46.52c-1.373-.969-2.988-1.465-4.616-1.465-1.094 0-2.192.224-3.226.679l-60.675 26.738 25.185-62.347c1.024-2.535.683-5.418-.906-7.644-27.084-37.94-38.878-84.333-33.209-130.63 6.039-49.317 30.921-93.331 70.064-123.933s87.859-44.129 137.177-38.091c49.317 6.039 93.331 30.921 123.933 70.064 30.603 39.143 44.13 87.86 38.091 137.177-11.532 94.169-91.928 163.422-184.498 163.416-7.507 0-15.106-.457-22.743-1.392-30.437-3.726-59.683-14.99-84.577-32.572zm330.652 14.078c-2.653-.931-5.596-.4-7.756 1.393-23.453 19.464-51.735 32.966-81.791 39.048-33.589 6.797-68.262 4.126-100.143-7.4 85.753-14.588 155.638-83.97 166.738-174.625 6.559-53.559-8.133-106.467-41.367-148.976-10.499-13.428-22.454-25.306-35.581-35.487 76.714 10.951 139.976 69.176 155.78 147.282 9.25 45.717 1.098 92.885-22.955 132.815-1.411 2.342-1.528 5.244-.31 7.692l29.954 60.2zm-307.298-194.138c-15.439 0-28 12.561-28 28s12.561 28 28 28 28-12.561 28-28-12.56-28-28-28zm0 40c-6.617 0-12-5.383-12-12s5.383-12 12-12 12 5.383 12 12-5.383 12-12 12zm111.626-12c0-15.439-12.561-28-28-28s-28 12.561-28 28 12.561 28 28 28 28-12.561 28-28zm-28.001 12c-6.617 0-12-5.383-12-12s5.383-12 12-12 12 5.383 12 12c.001 6.617-5.383 12-12 12zm84.039 16c15.439 0 28-12.561 28-28s-12.561-28-28-28-28 12.561-28 28 12.561 28 28 28zm0-40c6.617 0 12 5.383 12 12s-5.383 12-12 12-12-5.383-12-12 5.384-12 12-12z" fill="url(#SVGID_1_)"/></svg>