<svg fill="none" height="64" viewBox="0 0 64 64" width="64" xmlns="http://www.w3.org/2000/svg" xmlns:xlink="http://www.w3.org/1999/xlink"><linearGradient id="paint0_linear_2813_858" gradientUnits="userSpaceOnUse" x1="9.5" x2="48" y1="2" y2="52"><stop offset="0" stop-color="#fa1228"/><stop offset=".901177" stop-color="#5a00d1"/></linearGradient><g clip-rule="evenodd" fill="url(#paint0_linear_2813_858)" fill-rule="evenodd"><path d="m33.9502 15.5565c-.207-.9104-1.0165-1.5565-1.9502-1.5565s-1.7432.6461-1.9502 1.5565l-1.1066 4.8664c-.5118 2.2509-2.2694 4.0085-4.5203 4.5203l-4.8664 1.1066c-.9104.207-1.5565 1.0165-1.5565 1.9502s.6461 1.7432 1.5565 1.9502l4.8664 1.1066c2.2509.5118 4.0085 2.2694 4.5203 4.5203l1.1066 4.8664c.207.9104 1.0165 1.5565 1.9502 1.5565s1.7432-.6461 1.9502-1.5565l1.1066-4.8664c.5118-2.2509 2.2694-4.0085 4.5203-4.5203l4.8664-1.1066c.9104-.207 1.5565-1.0165 1.5565-1.9502s-.6461-1.7432-1.5565-1.9502l-4.8664-1.1066c-2.2509-.5118-4.0085-2.2694-4.5203-4.5203zm-6.3118 12.4435c1.8758-.9573 3.4043-2.4858 4.3616-4.3616.9573 1.8758 2.4858 3.4043 4.3616 4.3616-1.8758.9573-3.4043 2.4858-4.3616 4.3616-.9573-1.8758-2.4858-3.4043-4.3616-4.3616z"/><path d="m14 2c-6.62742 0-12 5.37258-12 12v28c0 6.6274 5.37258 12 12 12h10.0925l6.4023 7.317c.3798.434.9285.683 1.5052.683s1.1254-.249 1.5052-.683l6.4023-7.317h10.0925c6.6274 0 12-5.3726 12-12v-28c0-6.62742-5.3726-12-12-12zm-8 12c0-4.41828 3.58172-8 8-8h36c4.4183 0 8 3.58172 8 8v28c0 4.4183-3.5817 8-8 8h-11c-.5767 0-1.1254.249-1.5052.683l-5.4948 6.2798-5.4948-6.2798c-.3798-.434-.9285-.683-1.5052-.683h-11c-4.41828 0-8-3.5817-8-8z"/></g></svg>